<svg height="510pt" viewBox="-2 0 510 510.48073" width="510pt" xmlns="http://www.w3.org/2000/svg"><path d="m96.097656 134.796875-50.75-26.835937c-.820312-.4375-1.820312-.316407-2.511718.300781-.691407.617187-.921876 1.601562-.578126 2.460937l18.175782 45.613282-49.117188-2.957032c-.949218-.0625-1.832031.492188-2.1875 1.375-.359375.882813-.109375 1.894532.617188 2.507813l36.386718 31.03125-45.023437 34.285156c-.667969.507813-.988281 1.351563-.828125 2.175781.160156.824219.769531 1.484375 1.582031 1.710938l44.78125 12.355468-36.457031 53.132813c-.503906.742187-.511719 1.714844-.019531 2.460937.496093.746094 1.390625 1.121094 2.269531.949219l54.730469-10.9375-12.332031 63.152344c-.167969.851563.183593 1.726563.894531 2.226563.710937.5 1.648437.539062 2.398437.09375l38.054688-22.484376h314.792968l38.054688 22.484376c.75.445312 1.6875.40625 2.398438-.09375.710937-.5 1.0625-1.375.894531-2.226563l-12.304688-63.152344 54.730469 10.9375c.878906.171875 1.773438-.203125 2.269531-.949219.492188-.746093.484375-1.71875-.019531-2.460937l-36.5-53.167969 44.78125-12.359375c.808594-.222656 1.421875-.882812 1.582031-1.707031.15625-.824219-.164062-1.667969-.832031-2.175781l-45.003906-34.25 36.386718-31.03125c.726563-.613281.976563-1.625.617188-2.507813-.355469-.882812-1.238281-1.4375-2.1875-1.375l-49.117188 2.957032 18.175782-45.628907c.34375-.859375.113281-1.84375-.578125-2.460937-.691407-.617188-1.691407-.738282-2.511719-.300782l-50.75 26.851563zm0 0" fill="#e64c3c"/><path d="m118.78125 274.363281c-1.6875-11.710937-5.109375-23.105469-10.148438-33.8125-12.800781-27.628906-26.660156-66.382812-12.535156-105.753906 4.914063-13.617187 12.476563-26.125 22.242188-36.8125l65.765625-35.75h.089843c19.03125-2.21875 38.3125-.808594 56.824219 4.148437 8.195313 2.101563 16.792969 2.101563 24.988281 0 18.582032-4.980468 37.941407-6.386718 57.046876-4.148437l65.765624 35.75c9.765626 10.6875 17.328126 23.195313 22.242188 36.8125 14.125 39.371094.265625 78.125-12.535156 105.753906-5.039063 10.707031-8.460938 22.101563-10.148438 33.8125l-134.796875 49.574219zm0 0" fill="#c03a2b"/><path d="m411.011719 193.078125c0 27.628906-22.398438 50.023437-50.027344 50.023437s-50.023437-22.394531-50.023437-50.023437 22.394531-50.027344 50.023437-50.027344 50.027344 22.398438 50.027344 50.027344zm0 0" fill="#fff"/><path d="m360.984375 207.785156c-5.953125.003906-11.320313-3.582031-13.601563-9.082031s-1.023437-11.832031 3.1875-16.039063c4.210938-4.210937 10.542969-5.46875 16.042969-3.191406 5.5 2.28125 9.082031 7.652344 9.078125 13.605469-.015625 8.113281-6.589844 14.691406-14.707031 14.707031zm0 0" fill="#2c2f38"/><path d="m196.199219 193.078125c0 27.628906-22.394531 50.023437-50.023438 50.023437-27.628906 0-50.027343-22.394531-50.027343-50.023437s22.398437-50.027344 50.027343-50.027344c27.628907 0 50.023438 22.398438 50.023438 50.027344zm0 0" fill="#fff"/><path d="m146.175781 207.785156c5.953125.003906 11.320313-3.582031 13.601563-9.082031s1.023437-11.832031-3.1875-16.039063c-4.210938-4.210937-10.542969-5.46875-16.042969-3.191406-5.5 2.28125-9.082031 7.652344-9.078125 13.605469.015625 8.113281 6.589844 14.691406 14.707031 14.707031zm0 0" fill="#2c2f38"/><path d="m121.429688 381.527344c3.710937 17.921875 11.300781 52.4375-12.445313 60.558594-29.21875 9.976562 22.070313 14.917968 46.960937-17.125 3.488282 8.5625 3.40625 18.167968-.222656 26.671874-3.632812 8.503907-10.511718 15.207032-19.109375 18.613282-32.042969 15.449218 36.460938 16.507812 42.460938-17.125 0 0 20.480469 26.480468-2.207031 47.136718s56.851562 10.769532 40.34375-37.25c-16.507813-48.023437-4.414063-27.011718-4.414063-27.011718l29.128906 25.597656c6.667969 5.855469 16.640625 5.855469 23.308594 0l29.128906-25.597656s12.183594-20.921875-4.414062 27.011718c-16.59375 47.933594 62.941406 57.996094 40.34375 37.25-22.601563-20.742187-2.207031-47.136718-2.207031-47.136718 6 33.632812 74.503906 32.574218 42.460937 17.125-8.597656-3.40625-15.476563-10.109375-19.109375-18.613282-3.628906-8.503906-3.710938-18.109374-.222656-26.671874 24.890625 32.042968 76.179687 27.101562 46.960937 17.125-23.746093-8.121094-16.152343-42.636719-12.445312-60.558594zm0 0" fill="#e64c3c"/><path d="m262.40625 422.222656c0 4.875-3.949219 8.828125-8.824219 8.828125-4.878906 0-8.828125-3.953125-8.828125-8.828125s3.949219-8.828125 8.828125-8.828125c4.875 0 8.824219 3.953125 8.824219 8.828125zm0 0" fill="#f29c1f"/><path d="m306.546875 276.832031c-5.992187-6.925781-13.832031-12.007812-22.601563-14.652343-17.652343-6.445313-26.367187 18-30.339843 29.5625-3.972657-11.5625-12.738281-36.007813-30.390625-29.5625-8.769532 2.644531-16.609375 7.726562-22.601563 14.652343-5.558593-10.414062-12.003906-28.6875 6.976563-35.925781 1.746094-8.878906 5.324218-17.296875 10.503906-24.71875 8.207031-11.429688 21.414062-18.207031 35.488281-18.207031 14.070313 0 27.277344 6.777343 35.484375 18.207031 5.179688 7.421875 8.757813 15.839844 10.503906 24.71875 18.980469 7.148438 12.535157 25.511719 6.976563 35.925781zm0 0" fill="#e64c3c"/><path d="m306.546875 276.832031c-1.40625 2.640625-3 5.179688-4.769531 7.59375-15.175782 2.558594-30.515625 4.0625-45.902344 4.5-.089844 0-.089844 0-.175781.089844h-2.117188c-.652343.011719-1.300781-.015625-1.945312-.089844h-.351563c-15.386718-.4375-30.726562-1.941406-45.902344-4.5-1.769531-2.414062-3.363281-4.953125-4.769531-7.59375 5.992188-6.925781 13.832031-12.007812 22.601563-14.652343 17.652344-6.445313 26.394531 15.269531 30.367187 26.835937 3.96875-11.566406 12.710938-33.28125 30.363281-26.835937 8.769532 2.644531 16.609376 7.726562 22.601563 14.652343zm0 0" fill="#2c2f38"/><g fill="#f0c419"><path d="m500.046875 0s-4.414063 94.898438-68.414063 94.101562c-64-.792968-75.035156 19.15625-88.277343 36.105469-7.503907 9.535157-24.453125 30.71875-37.691407 47.226563-4.503906-16.066406-25.160156-28.246094-50.230468-28.777344 4.945312-6.621094 21.804687-29.308594 53.320312-70.003906 38.222656-49.257813 72.121094-51.464844 114.050782-39.632813 41.929687 11.828125 77.242187-39.019531 77.242187-39.019531zm0 0"/><path d="m251.726562 148.65625c-25.070312.53125-45.726562 12.710938-50.230468 28.777344-13.238282-16.507813-30.1875-37.691406-37.691406-47.226563-13.242188-16.949219-24.277344-36.8125-88.277344-36.105469-64 .707032-68.414063-94.101562-68.414063-94.101562s35.3125 50.847656 77.242188 39.019531c41.929687-11.832031 75.828125-9.625 114.050781 39.632813 31.515625 40.695312 48.375 63.382812 53.320312 70.003906zm0 0"/><path d="m405.328125 354.957031c-11.035156 28.601563-23.21875 31.425781-55.703125 33.105469-22.15625 1.058594-58.878906-3.445312-84.746094-5.296875h3.882813c-4.457031-.78125-8.996094-.988281-13.503907-.621094 2.914063.179688 6.179688.355469 9.621094.621094h-21.804687c4.328125-.265625 8.300781-.53125 11.828125-.621094-5.507813-.421875-11.042969-.214843-16.503906.621094h4.675781c-25.863281 1.851563-63.203125 6.355469-85.539063 5.296875-32.484375-1.679688-44.667968-4.503906-55.703125-33.195312-11.03125-28.6875 3.886719-105.3125 51.90625-84.832032 16.582031 6.828125 33.917969 11.660156 51.644531 14.390625 15.175782 2.558594 30.515626 4.0625 45.902344 4.5h.351563c.644531.074219 1.292969.101563 1.945312.089844h2.117188c.085937-.089844.085937-.089844.175781-.089844 15.386719-.4375 30.726562-1.941406 45.902344-4.5 17.726562-2.730469 35.0625-7.5625 51.644531-14.390625 48.019531-20.480468 62.9375 56.144532 51.90625 84.921875zm0 0"/></g><path d="m373.546875 329.886719c-.265625-5.472657-.882813-21.628907-5.824219-25.246094-4.152344-3.089844-22.867187 6.089844-29.484375 7.855469-2.472656.707031-4.945312 1.324218-7.417969 1.941406h-.085937l-13.507813 3.003906c-4.324218.882813-8.5625 1.585938-12.886718 2.292969-29.269532 4.894531-59.09375 5.519531-88.542969 1.855469-8.648437-1.058594-17.210937-2.382813-25.773437-4.0625h-.089844l-13.328125-3c-5.386719-1.324219-10.59375-2.738282-15.890625-4.414063-3.621094-1.148437-17.125-8.476562-20.214844-7.328125-4.769531 1.679688-6.269531 20.128906-6.621094 24.101563-1.238281 8.25.515625 16.671875 4.941406 23.746093 6.851563 1.996094 13.964844 2.949219 21.097657 2.824219 11.238281-.082031 22.464843-.730469 33.632812-1.941406 1.324219-.089844 2.648438-.175781 3.972657-.355469 19.15625-1.675781 38.3125-4.414062 57.558593-4.414062 18.09375.089844 36.367188 2.648437 54.554688 4.328125 3.53125.351562 6.972656.617187 10.503906.882812 8.914063.617188 17.832031 1.058594 26.746094.792969h1.855469c5.648437-.265625 16.066406.617188 20.214843-3.175781 4.589844-4.0625 4.765625-14.125 4.589844-19.6875zm0 0" fill="#2c2f38"/><path d="m197.523438 351.160156c-1.324219.179688-2.648438.265625-3.972657.355469-11.167969 1.210937-22.394531 1.859375-33.632812 1.941406l11.035156-28.867187c1.371094-3.617188 3.277344-7.007813 5.652344-10.0625 1.140625-1.601563 2.410156-3.105469 3.792969-4.503906l2.5625-2.558594c2.832031 2.972656 5.183593 6.367187 6.972656 10.0625h.089844c1.867187 3.730468 3.179687 7.71875 3.882812 11.828125zm0 0" fill="#f9eab0"/><path d="m346.886719 352.75c-8.914063.265625-17.832031-.175781-26.746094-.792969-3.53125-.265625-6.972656-.53125-10.503906-.882812l3.617187-21.71875c.695313-4.152344 2.035156-8.175781 3.972656-11.914063 1.789063-3.671875 4.140626-7.035156 6.972657-9.976562l.796875.707031c2.179687 1.824219 4.109375 3.933594 5.738281 6.265625h.085937c2.5 3.277344 4.492188 6.90625 5.914063 10.769531zm0 0" fill="#f9eab0"/></svg>