<svg height="512pt" viewBox="-1 0 512 512.3063" width="512pt" xmlns="http://www.w3.org/2000/svg"><path d="m175.5625 385.296875c-3.78125-6.542969-11.464844-9.75-18.773438-7.84375-16.277343 5.6875-31.375 14.308594-44.542968 25.4375-14.832032 9.34375-24.335938 25.183594-25.601563 42.667969 25.601563-17.066406 68.269531-8.53125 68.269531-8.53125s-25.601562 8.53125-25.601562 59.730468c0 0 8.53125-34.132812 51.199219-34.132812l12.203125 12.117188c3.242187 3.253906 6.988281 5.960937 11.09375 8.023437l31.914062 3.410156zm0 0" fill="#ff5722"/><path d="m365.046875 435.660156c-6.058594.597656-9.898437 1.367188-9.898437 1.367188s25.597656 8.53125 25.597656 59.730468c-4.835938-15.289062-17.011719-27.144531-32.425782-31.570312-6.097656-1.769531-12.425781-2.632812-18.773437-2.5625l-4.4375 4.351562-7.765625 7.765626c-3.242188 3.253906-6.988281 5.960937-11.09375 8.023437l-31.914062 3.410156 1.964843-3.242187 58.28125-97.621094c.679688-1.207031 1.542969-2.300781 2.558594-3.242188 4.078125-4.449218 10.3125-6.230468 16.128906-4.605468 16.285157 5.664062 31.386719 14.285156 44.542969 25.425781 14.832031 9.34375 24.339844 25.183594 25.601562 42.667969-9.054687-5.574219-19.277343-8.960938-29.867187-9.898438-9.472656-1.03125-19.027344-1.03125-28.5 0zm0 0" fill="#d84315"/><g fill="#c52828"><path d="m135.585938 230.433594s-17.070313 8.535156-25.601563 51.199218c0 0 25.601563-17.066406 42.667969-17.066406zm0 0"/><path d="m374.515625 230.433594s17.070313 8.535156 25.601563 51.199218c0 0-25.601563-17.066406-42.667969-17.066406zm0 0"/><path d="m391.15625 191.777344h.085938c16.042968-2.984375 34.476562 21.589844 34.476562 21.589844 7.421875-51.796876-23.808594-58.710938-32.085938-59.5625h-.085937l-1.367187-2.21875c4.058593-18.113282 16.519531-33.203126 33.539062-40.617188-36.4375-14.59375-54.273438 1.960938-58.625 7.082031zm0 0"/><path d="m118.945312 191.777344h-.085937c-16.042969-2.984375-34.476563 21.589844-34.476563 21.589844-7.421874-51.796876 23.808594-58.710938 32.085938-59.5625h.085938l1.367187-2.21875c-4.058594-18.113282-16.519531-33.203126-33.539063-40.617188 36.4375-14.59375 54.273438 1.960938 58.625 7.082031v.085938zm0 0"/><path d="m396.363281 174.539062-20.308593 67.925782c-1 3.3125-2.65625 6.386718-4.863282 9.046875l-35.160156 42.152343c-2.722656 3.3125-4.597656 7.238282-5.460938 11.4375l-4.949218 30.460938c-1.304688 8.269531-8.4375 14.355469-16.808594 14.339844h-107.523438c-8.371093.015625-15.503906-6.070313-16.808593-14.339844l-4.949219-30.460938c-.863281-4.199218-2.738281-8.125-5.460938-11.4375l-35.15625-42.152343c-2.210937-2.660157-3.867187-5.734375-4.867187-9.046875l-20.308594-67.925782c-2.367187-7.769531-.875-16.207031 4.011719-22.699218l43.433594-57.9375 42.667968-59.734375 37.121094-12.375 3.328125-1.109375c6.980469-2.304688 14.519531-2.304688 21.503907 0l40.445312 13.484375 42.667969 59.734375 43.433593 57.9375c4.886719 6.492187 6.378907 14.929687 4.011719 22.699218zm0 0"/></g><path d="m395.167969 445.558594c-9.132813-5.601563-19.449219-8.988282-30.121094-9.898438-12.71875-1.320312-25.554687-.859375-38.144531 1.367188 0 0 14.164062 4.691406 21.417968 28.160156-6.097656-1.769531-12.425781-2.632812-18.773437-2.5625l-4.4375 4.351562c-6.398437-2.644531-14.25 19.457032-23.808594 19.457032l-12.203125-11.691406c-3.242187 3.253906-6.988281 5.960937-11.09375 8.023437l-1.703125.167969 58.28125-97.621094c.679688-1.207031 1.542969-2.300781 2.558594-3.242188 11.628906 5.574219 22.523437 12.566407 32.425781 20.820313 11.769532 7.585937 20.3125 19.257813 23.980469 32.769531.941406 3.222656 1.484375 6.546875 1.621094 9.898438zm0 0" fill="#ff5722"/><path d="m368.203125 174.539062-20.394531 67.925782c-1 3.3125-2.652344 6.386718-4.863282 9.046875l-35.160156 42.152343c-2.722656 3.3125-4.597656 7.238282-5.460937 11.4375l-4.949219 30.460938c-1.304688 8.269531-8.4375 14.355469-16.808594 14.339844h-79.277344c-8.371093.015625-15.503906-6.070313-16.808593-14.339844l-4.949219-30.460938c-.863281-4.199218-2.738281-8.125-5.460938-11.4375l-35.15625-42.152343c-2.210937-2.660157-3.867187-5.734375-4.867187-9.046875l-20.308594-67.925782c-2.367187-7.769531-.875-16.207031 4.011719-22.699218l43.433594-57.9375 42.667968-59.734375 37.121094-12.375 37.03125 12.375 42.667969 59.734375 43.433594 57.9375c4.875 6.496094 6.390625 14.910156 4.097656 22.699218zm0 0" fill="#f44335"/><path d="m182.515625 102.433594c-9.390625-10.453125-20.914063-18.773438-33.789063-24.40625.765626-4.792969-13.507812-17.066406-16.214843-31.058594-2.097657-10.882812 8.976562-22.65625-.171875-33.707031 67.585937 12.714843 101.378906 46.503906 101.378906 46.503906 9.214844 59.734375-51.203125 42.667969-51.203125 42.667969zm0 0" fill="#795548"/><path d="m239.007812 196.300781h-35.15625c-2.914062.003907-5.804687-.519531-8.535156-1.535156-18.300781-8.398437-28.867187-27.863281-25.941406-47.789063l.34375-1.875c15.496094-.128906 30.5625 5.082032 42.664062 14.761719 11.832032 9.683594 20.992188 22.226563 26.625 36.4375zm0 0" fill="#ff9801"/><path d="m314.785156 194.765625c-2.730468 1.015625-5.621094 1.539063-8.535156 1.535156h-34.132812c5.289062-14.058593 14.105468-26.515625 25.601562-36.183593 4.878906-4.003907 10.308594-7.277344 16.125-9.726563 8.394531-3.554687 17.425781-5.355469 26.539062-5.289063l.34375 1.875c2.925782 19.925782-7.640624 39.390626-25.941406 47.789063zm0 0" fill="#ff9801"/><path d="m148.726562 78.027344c-18.285156-8.292969-38.335937-11.925782-58.367187-10.582032.355469-4.171874-28.332031-15.519531-31.574219-24.148437-4.515625-11.996094 13.292969-21.800781-12.375-26.964844 10.394532-5.40625 21.996094-8.078125 33.707032-7.765625 17.515624-.039062 34.996093 1.53125 52.222656 4.695313 14.214844 18.378906 20.148437 41.839843 16.386718 64.765625zm0 0" fill="#fec108"/><path d="m90.359375 67.445312c-3.328125.085938-6.742187.429688-10.242187.855469-12.019532.816407-23 7.109375-29.78125 17.066407-6.945313 5.613281-15.375 9.074218-24.261719 9.957031-5.117188.214843-5.261719-12.527344-13.113281-10.296875.597656-28.929688 9.984374-55.808594 33.363281-68.695313h.085937c44.117188 8.875 44.800782 41.132813 43.949219 51.113281zm0 0" fill="#795548"/><path d="m54.433594 187.683594c-22.445313-9.046875-42.496094-58.199219-41.472656-102.65625 27.988281-7.9375 37.375.339844 37.375.339844-21.929688 32.597656 3.074218 99.414062 4.097656 102.316406zm0 0" fill="#fec108"/><path d="m325.347656 102.433594c9.398438-10.453125 20.929688-18.777344 33.808594-24.40625-.765625-4.792969 13.507812-17.066406 16.214844-31.058594 2.097656-10.882812-8.976563-22.65625.171875-33.707031-67.585938 12.714843-101.394531 46.503906-101.394531 46.503906-9.214844 59.734375 51.199218 42.667969 51.199218 42.667969zm0 0" fill="#795548"/><path d="m359.15625 78.027344c18.285156-8.292969 38.339844-11.925782 58.371094-10.582032-.359375-4.171874 28.320312-15.519531 31.570312-24.148437 4.515625-11.996094-13.292968-21.800781 12.375-26.964844-10.402344-5.40625-22.007812-8.082031-33.722656-7.765625-17.515625-.039062-35 1.53125-52.226562 4.695313-14.207032 18.382812-20.136719 41.839843-16.367188 64.765625zm0 0" fill="#fec108"/><path d="m417.507812 67.445312c3.328126.085938 6.742188.429688 10.242188.855469 12.019531.816407 22.996094 7.109375 29.78125 17.066407 6.941406 5.613281 15.375 9.074218 24.257812 9.957031 5.121094.214843 5.265626-12.527344 13.117188-10.296875-.597656-28.929688-9.984375-55.808594-33.367188-68.695313h-.082031c-44.121093 8.875-44.800781 41.132813-43.949219 51.113281zm0 0" fill="#795548"/><path d="m453.433594 187.683594c22.441406-9.046875 42.496094-58.199219 41.472656-102.65625-27.988281-7.9375-37.375.339844-37.375.339844 21.945312 32.597656-3.074219 99.414062-4.097656 102.316406zm0 0" fill="#fec108"/><path d="m338.933594 412.195312-77.566406 88.832032c-1.632813 1.753906-3.921876 2.75-6.316407 2.75s-4.683593-.996094-6.316406-2.75l-7.761719-8.960938-69.804687-79.871094c-4.613281-5.566406-5.195313-13.445312-1.449219-19.628906l34.132812-68.265625s22.015626-29.269531-8.703124-81.152343c-3.328126-5.632813 1.109374-10.921876 7.421874-12.714844 10.753907-3.15625 37.804688-24.148438 37.804688-24.148438.167969-.085937.425781-.085937.597656-.171875 9.410156-2.632812 19.375-2.574219 28.753906.171875 0 0 27.050782 20.992188 37.804688 24.148438 6.3125 1.792968 10.75 7.082031 7.421875 12.714844-30.71875 51.882812-8.703125 81.152343-8.703125 81.152343l34.132812 68.265625c3.746094 6.183594 3.164063 14.0625-1.449218 19.628906zm0 0" fill="#c52828"/><path d="m310.773438 412.195312-69.800782 79.871094-69.804687-79.871094c-4.613281-5.566406-5.195313-13.445312-1.449219-19.628906l34.132812-68.265625s22.015626-29.269531-8.703124-81.152343c-3.328126-5.632813 1.109374-10.921876 7.421874-12.714844 10.753907-3.15625 37.804688-24.148438 37.804688-24.148438.167969-.085937.425781-.085937.597656-.171875.167969.085938.339844.085938.511719.171875 0 0 27.050781 20.992188 37.886719 24.148438 6.230468 1.792968 10.75 7.082031 7.339844 12.714844-30.636719 51.882812-8.707032 81.152343-8.707032 81.152343l34.136719 68.265625c3.726563 6.175782 3.179687 14.027344-1.367187 19.628906zm0 0" fill="#f44335"/><path d="m271.035156 368.214844c-2.496094-6.667969-8.867187-11.082032-15.984375-11.082032-7.117187 0-13.488281 4.414063-15.984375 11.082032l-12.953125 34.59375-7.679687-7.679688c-3.347656-3.234375-8.667969-3.191406-11.960938.101563-3.292968 3.292969-3.339844 8.613281-.105468 11.960937l17.066406 17.070313c2.054687 2.050781 5.007812 2.921875 7.84375 2.308593 2.839844-.617187 5.167968-2.628906 6.1875-5.347656l17.585937-47.019531 17.605469 46.933594c1.023438 2.714843 3.351562 4.726562 6.1875 5.351562.59375.132813 1.199219.203125 1.808594.210938 2.261718 0 4.433594-.898438 6.03125-2.5l17.066406-17.066407c3.234375-3.347656 3.1875-8.671874-.101562-11.960937-3.292969-3.292969-8.617188-3.339844-11.964844-.105469l-7.679688 7.679688zm0 0"/><path d="m47.078125 195.695312c3.144531 1.238282 6.726563.5 9.128906-1.878906 2.402344-2.382812 3.171875-5.953125 1.960938-9.113281-6.714844-17.476563-20.894531-68.265625-5.972657-93.210937 5.34375-8.644532 14.566407-14.140626 24.714844-14.726563 26.058594-3.925781 52.671875 1.351563 75.261719 14.925781l-10.390625 13.867188c-10.371094-7.355469-29.867188-14.816406-60.589844-2.511719-3.308594 1.328125-5.441406 4.574219-5.351562 8.140625.089844 3.5625 2.390625 6.695312 5.761718 7.851562 11.976563 5.488282 21.214844 15.601563 25.601563 28.023438-8.574219 2.539062-16.144531 7.6875-21.660156 14.730469-9.65625 12.371093-12.917969 30.136719-9.667969 52.785156.492188 3.417969 2.988281 6.203125 6.332031 7.058594s6.875-.386719 8.945313-3.148438c5.519531-7.636719 12.902344-13.738281 21.441406-17.726562l7.261719 24.226562c-6.3125 4.875-19.625 19.003907-26.828125 54.972657-.675782 3.382812.75 6.839843 3.613281 8.761718 2.867187 1.917969 6.605469 1.929688 9.476563.019532 6.605468-4.351563 26.164062-15.640626 38-15.640626.492187-.054687.976562-.152343 1.449218-.292968l21.964844 26.359375c1.765625 2.097656 2.988281 4.59375 3.570312 7.273437l7.261719 44.824219c.160157 1.019531.507813 2 1.023438 2.894531l-6.699219 13.402344c-.945312-.375-1.953125-.578125-2.96875-.59375-27.09375 0-58.464844 25.597656-62.585938 29.105469-17 10.9375-27.773437 29.316406-29.011718 49.492187 0 3.148438 1.730468 6.042969 4.507812 7.527344 2.773438 1.484375 6.144532 1.320312 8.761719-.425781 13.230469-7.25 28.304687-10.441407 43.339844-9.164063-10.148438 15.832032-15.019531 34.480469-13.910157 53.253906 0 4.3125 3.214844 7.949219 7.492188 8.476563.351562.039063.699219.058594 1.050781.058594 3.910157-.003907 7.320313-2.667969 8.269531-6.460938 5.730469-16.828125 21.71875-27.996093 39.492188-27.585937l9.597656 9.53125c3.890625 3.902344 8.386719 7.152344 13.3125 9.617187.910156.457031 1.898438.746094 2.910156.851563l28.640626 3.0625 10.894531 12.476562c3.257812 3.546875 7.859375 5.550782 12.671875 5.519532 4.8125-.027344 9.390625-2.089844 12.605468-5.671876l10.757813-12.324218 28.640625-3.0625c1.011719-.105469 2-.394532 2.910156-.851563 4.90625-2.460937 9.382813-5.703125 13.25-9.601562l9.625-9.546875c17.785156-.4375 33.78125 10.742187 39.492188 27.585937.953125 3.792969 4.359375 6.457031 8.269531 6.460938.351563 0 .703125-.019531 1.050781-.058594 4.28125-.527344 7.496094-4.164063 7.492188-8.476563 1.121094-18.769531-3.738282-37.417968-13.875-53.253906 15.023437-1.273437 30.089844 1.914063 43.316406 9.15625 2.617188 1.746094 5.984375 1.910156 8.761719.425782 2.773437-1.488282 4.507812-4.378907 4.507812-7.527344-1.242187-20.175782-12.015625-38.554688-29.015625-49.492188-4.09375-3.5-35.464844-29.097656-62.558594-29.097656-1.011718.015625-2.011718.21875-2.949218.59375l-6.710938-13.394531c.511719-.890625.855469-1.863281 1.015625-2.875l7.203125-44.519531c.558594-2.789063 1.804688-5.394532 3.628906-7.578126l21.964844-26.359374c.472656.132812.957032.21875 1.449219.265624 11.835937 0 31.394531 11.289063 37.9375 15.640626 2.878906 1.917968 6.628906 1.90625 9.5-.023438 2.867187-1.933594 4.285156-5.402344 3.589844-8.792969-7.183594-35.964843-20.476563-50.097656-26.828125-54.96875l7.273437-24.246093c8.542969 4 15.921875 10.121093 21.433594 17.777343 2.074219 2.753907 5.601563 3.992188 8.941406 3.132813 3.339844-.855469 5.835938-3.636719 6.324219-7.050782 3.253906-22.648437 0-40.414062-9.667969-52.789062-5.511719-7.039062-13.082031-12.1875-21.65625-14.726562 4.394531-12.410157 13.632813-22.511719 25.597657-27.996094 3.398437-1.132813 5.726562-4.265625 5.835937-7.84375.105469-3.578125-2.03125-6.84375-5.355469-8.175782-30.722656-12.296874-50.203125-4.847656-60.585937 2.507813l-10.402344-13.863281c22.582031-13.589844 49.203125-18.867188 75.261719-14.925782 10.128906.59375 19.335937 6.085938 24.671875 14.71875 14.898437 24.839844.734375 75.714844-5.976563 93.226563-1.21875 3.167969-.441406 6.757813 1.976563 9.140625s6.019531 3.109375 9.167969 1.84375c31.113281-12.453125 54.519531-82.039062 44.707031-132.960938-7.773438-40.429687-33.875-62.6914058-73.480469-62.6914058-42.375-.6835942-84.28125 8.9453128-122.109375 28.0468748-.898437-.90625-1.988281-1.59375-3.191406-2.011719l-40.398438-13.46875c-8.765625-2.898437-18.234375-2.898437-27 0l-40.394531 13.46875c-1.207031.417969-2.296875 1.105469-3.191406 2.011719-37.832032-19.101562-79.738282-28.730469-122.113282-28.0468748-39.605468 0-65.707031 22.2617188-73.480468 62.7031248-1.324219 7.097657-2.050782 14.292969-2.175782 21.511719v.050781c-1.101562 47.1875 19.984376 100.632813 46.882813 111.394531zm-29.867187-104.167968c3.53125-.886719 7.152343-1.367188 10.792968-1.433594 1.921875-.027344 3.839844.191406 5.710938.648438-7.441406 19.046874-5.566406 43.402343-1.707032 63.335937-9.207031-19.601563-14.253906-40.902344-14.816406-62.550781zm204.210937-27.492188c1.492187 12.585938-.589844 21.484375-6.195313 26.453125-8.441406 7.507813-24.492187 5.972657-32.332031 4.316407-8.535156-8.894532-18.492187-16.304688-29.46875-21.921876 2.074219-16.246093-1.105469-32.726562-9.070312-47.035156 28.171875 6.941406 54.476562 19.976563 77.066406 38.1875zm-89.890625 55.183594-11.246094 14.992188c-3.820312-7.59375-9.003906-14.417969-15.292968-20.136719 9.179687-1.726563 18.667968.113281 26.539062 5.144531zm-39.578125 74.15625c.214844-7.578125 2.6875-14.917969 7.109375-21.078125 1.484375-1.902344 3.234375-3.578125 5.195312-4.984375-.046874 3.273438.378907 6.535156 1.261719 9.683594l2.230469 7.417968c-5.773438 1.992188-11.125 5.027344-15.796875 8.960938zm22.945313 70.917969c2.398437-7.433594 5.976562-14.429688 10.597656-20.726563l.410156 1.375c1.316406 4.414063 3.519531 8.511719 6.476562 12.039063l.582032.699219c-6.222656 1.609374-12.273438 3.824218-18.066406 6.613281zm91.511718 210.195312c-2.789062-1.5625-5.347656-3.503906-7.601562-5.769531l-12.203125-12.117188c-1.601563-1.585937-3.761719-2.476562-6.015625-2.476562-13.542969-.359375-26.855469 3.519531-38.085938 11.09375 2.074219-8.503906 7.566406-15.777344 15.183594-20.09375 3.675781-1.21875 6.070312-4.765625 5.828125-8.628906-.238281-3.867188-3.054687-7.085938-6.855469-7.839844-19.082031-3.527344-38.703125-2.882812-57.511718 1.894531 3.925781-8.398437 10.136718-15.523437 17.917968-20.558593.296875-.191407.582032-.402344.855469-.632813 13.378906-11.617187 29.199219-20.074219 46.292969-24.746094l-1.757813 3.515625c-5.570312 9.363282-4.644531 21.21875 2.3125 29.601563l50.34375 57.601562zm185.875-65.09375c.269532.230469.554688.441407.851563.632813 7.785156 5.035156 13.996093 12.15625 17.921875 20.554687-18.808594-4.773437-38.425782-5.417969-57.507813-1.894531-3.703125.773438-6.449219 3.90625-6.722656 7.679688-.285156 3.808593 1.953125 7.355468 5.511719 8.738281 7.707031 4.289062 13.273437 11.597656 15.359375 20.164062-11.226563-7.574219-24.539063-11.453125-38.074219-11.09375-2.238281.011719-4.386719.898438-5.976562 2.476563l-12.21875 12.144531c-2.25 2.253906-4.800782 4.1875-7.585938 5.742187l-8.660156.921876 50.515625-57.824219c6.734375-8.152344 7.710937-19.625 2.449219-28.796875l-2.039063-4.097656c17.023437 4.660156 32.789063 13.070312 46.140625 24.617187zm2.953125-145.066406c-5.792969-2.789063-11.84375-5.003906-18.066406-6.613281l.578125-.699219c2.960938-3.53125 5.164062-7.628906 6.476562-12.042969l.410157-1.355468c4.613281 6.28125 8.179687 13.261718 10.566406 20.675781zm15.800781-92.03125c4.421876 6.160156 6.898438 13.5 7.109376 21.078125-4.667969-3.933594-10.023438-6.972656-15.796876-8.960938l2.230469-7.417968c.882813-3.152344 1.308594-6.417969 1.261719-9.691406 1.960938 1.410156 3.710938 3.089843 5.195312 4.992187zm-5.972656-58.222656c-6.289062 5.71875-11.46875 12.542969-15.292968 20.136719l-11.238282-14.984376c7.875-5.050781 17.382813-6.894531 26.574219-5.152343zm-37.71875-88.636719c-8.019531 14.191406-11.308594 30.566406-9.382812 46.753906-11.46875 5.703125-21.863282 13.347656-30.722656 22.597656-7.859376 1.707032-23.894532 3.191407-32.339844-4.320312-5.605469-4.980469-7.679688-13.882812-6.195313-26.453125 23.03125-18.527344 49.894531-31.703125 78.640625-38.578125zm109.230469 65.765625c5.339844-1.585937 11.03125-1.585937 16.375 0-.527344 21.769531-5.585937 43.1875-14.847656 62.890625 5.050781-20.730469 4.515625-42.433594-1.554688-62.890625zm14.417969-25.242187c.503906 2.5625.769531 5.207031 1.085937 7.835937-8.117187-1.703125-16.566406-.78125-24.125 2.636719-8.3125-9.550782-20.007812-15.5-32.621093-16.597656h-.230469c.324219-10.121094 5.117187-27.589844 32.554687-33.511719 12.851563 9.480469 21.273438 23.796875 23.3125 39.636719zm-48.296875-48.28125c-14.710938 8.523437-24 24.011718-24.59375 41.003906-.589844 0-1.210938-.058594-1.792969-.058594-14.203125-.074219-28.324219 2.160156-41.8125 6.613281-.828125-15.648437 4.953125-30.925781 15.933594-42.105469.808594-.808593 1.445312-1.773437 1.875-2.832031 13.878906-2.140625 27.902344-3.210937 41.941406-3.199219 2.816406.039063 5.628906.234376 8.421875.578126zm-195.722657 11.09375c5.265626-1.742188 10.953126-1.742188 16.214844 0l30.414063 10.171874c-6.757813 4.351563-13.113281 9.300782-18.988281 14.789063-1.28125 1.28125-2.121094 2.9375-2.398438 4.726563-3.140625 20.285156.683594 35.355468 11.367188 44.816406 18.339843 16.214844 49.28125 7.742187 50.578124 7.367187 1.699219-.484375 3.210938-1.480469 4.324219-2.851562 1.792969-2.082031 3.722657-4.046875 5.777344-5.871094l41.277344 55.03125c3.234375 4.339844 4.230469 9.949219 2.6875 15.136719l-4.964844 16.53125v.117187l-15.363281 51.277344c-.652344 2.210937-1.75 4.261719-3.230469 6.027344l-35.210937 42.195312c-3.699219 4.460938-6.214844 9.78125-7.3125 15.472657l-4.070313 25.15625-4.191406-8.382813c-.21875-.421875-.472657-.828125-.75-1.21875-.851563-1.230469-20.933594-30.601563 17.128906-83.875 2.734375-3.835937 1.847656-9.164063-1.988281-11.902344-3.839844-2.738281-9.167969-1.847656-11.90625 1.988281-42.8125 59.929688-21.410156 97.28125-17.484375 103.175782l34.203125 68.308594c1.800781 3 1.585937 6.796874-.539063 9.574218l-64.152343 73.695313c-.371094.347656-.703126.730469-1 1.144531l-12.203126 14.019531-77.464843-88.636719c-2.355469-3.011718-2.511719-7.195312-.394531-10.375l33.878906-67.730468c3.933594-5.894532 25.320312-43.246094-17.484375-103.175782-1.769531-2.480468-4.730469-3.832031-7.765625-3.539062-3.035156.296875-5.683594 2.183594-6.949219 4.960938-1.261719 2.773437-.949219 6.011718.824219 8.492187 38.058594 53.273437 17.996094 82.644531 17.183594 83.789063-.308594.410156-.578126.847656-.808594 1.304687l-4.191406 8.390625-4.128907-25.472656c-1.117187-5.578125-3.613281-10.792969-7.253906-15.164063l-35.148437-42.179687c-1.480469-1.765625-2.582032-3.816406-3.234376-6.023438l-15.359374-51.203125v-.101562l-4.992188-16.628907c-1.546875-5.191406-.550781-10.808593 2.6875-15.148437l41.273438-55.039063c2.050781 1.816407 3.972656 3.773438 5.753906 5.851563 1.113281 1.394531 2.632812 2.398437 4.351562 2.878906 1.296875.375 32.238282 8.863281 50.578125-7.367187 10.683594-9.460938 14.503907-24.53125 11.363281-44.816406-.273437-1.789063-1.113281-3.445313-2.394531-4.726563-5.886719-5.488281-12.253906-10.4375-19.023437-14.789063zm-127.707031-8.257813c.414063.976563 1.007813 1.867187 1.75 2.625 11.113281 11.324219 16.898438 26.832031 15.914063 42.667969-14.007813-4.777344-28.722656-7.15625-43.519532-7.03125-.511718-17.078125-9.839843-32.667969-24.644531-41.191406 2.328125-.203126 4.597657-.484376 7.082031-.484376 14.539063-.015624 29.058594 1.125 43.417969 3.414063zm-76.433593 5.535156c27.640624 5.539063 33.238281 22.1875 33.59375 33.648438-.578126.066406-1.074219.066406-1.636719.136719-12.402344 1.09375-23.921875 6.867187-32.222657 16.144531-7.796874-3.128907-16.367187-3.804688-24.558593-1.9375.316406-2.703125.605469-5.417969 1.117187-8.070313 2.035156-16.019531 10.617188-30.476562 23.707032-39.929687zm0 0"/><path d="m169.71875 136.566406c-4.058594 0-7.550781 2.855469-8.363281 6.828125l-.367188 1.832031c-2.382812 15.582032 2.046875 31.433594 12.160157 43.523438 7.265624 9.738281 18.558593 15.65625 30.703124 16.082031h35.164063c2.769531 0 5.363281-1.347656 6.960937-3.605469 1.597657-2.261718 2-5.15625 1.078126-7.769531-.820313-2.277343-20.753907-56.890625-77.335938-56.890625zm16.628906 41.363282c-5.550781-6.761719-8.75-15.152344-9.105468-23.894532 6.269531.746094 12.371093 2.503906 18.074218 5.203125v26.277344c-3.449218-1.925781-6.496094-4.503906-8.96875-7.585937zm26.035156 9.835937v-16.5625c5.042969 4.929687 9.417969 10.496094 13.015626 16.5625zm0 0"/><path d="m272.117188 204.832031h34.132812c12.152344-.421875 23.453125-6.335937 30.722656-16.082031 10.101563-12.078125 14.527344-27.914062 12.160156-43.480469l-.386718-1.875c-.808594-3.972656-4.304688-6.828125-8.363282-6.828125-13.089843-.082031-25.96875 3.289063-37.339843 9.78125-.296875.152344-.582031.320313-.855469.511719-17.683594 10.769531-31.15625 27.265625-38.175781 46.746094-.867188 2.601562-.429688 5.464843 1.175781 7.691406 1.605469 2.222656 4.1875 3.539063 6.929688 3.535156zm51.636718-26.902343c-2.472656 3.082031-5.519531 5.660156-8.96875 7.585937v-26.199219c5.691406-2.734375 11.800782-4.507812 18.074219-5.246094-.363281 8.730469-3.558594 17.105469-9.105469 23.859376zm-26.035156-6.375v16.210937h-12.246094c3.363282-5.910156 7.480469-11.359375 12.246094-16.210937zm0 0"/><path d="m234.808594 213.972656c-2.101563.839844-3.78125 2.480469-4.671875 4.5625-.890625 2.082032-.921875 4.429688-.078125 6.53125 9.953125 26.300782 15.515625 54.0625 16.457031 82.167969v.367187c.101563 4.710938 4.007813 8.449219 8.71875 8.347657 4.710937-.101563 8.453125-4.003907 8.351563-8.714844 0-15.90625 2.832031-61.398437 15.632812-80.597656 1.691406-2.535157 1.902344-5.785157.550781-8.515625-1.351562-2.734375-4.058593-4.539063-7.101562-4.738282-3.042969-.195312-5.957031 1.246094-7.648438 3.78125-5.050781 8.210938-8.746093 17.179688-10.949219 26.566407-2.296874-8.46875-5.019531-16.8125-8.160156-25.003907-.839844-2.105468-2.480468-3.789062-4.5625-4.679687-2.082031-.890625-4.433594-.917969-6.539062-.074219zm0 0"/></svg>