<svg height="512" viewBox="0 0 56 59" width="512" xmlns="http://www.w3.org/2000/svg"><g id="Page-1" fill="none" fill-rule="evenodd"><g id="008---Dragon-Costume" fill-rule="nonzero"><path id="Shape" d="m12.79 25h-1.79c-1.65685421 0-2.99999991-1.3431458-2.99999991-3s1.3431457-3 2.99999991-3h1z" fill="#f9c795"/><path id="Shape" d="m44 19h1c1.6568542 0 2.9999999 1.3431458 2.9999999 3s-1.3431457 3-2.9999999 3h-1.79z" fill="#f9c795"/><path id="Shape" d="m42.33 10.85c1.2187053 2.537899 1.7923275 5.3373127 1.67 8.15 0 12.13-7.16 14-16 14s-16-1.87-16-14c-.1223275-2.8126873.4512947-5.612101 1.67-8.15z" fill="#24ae5f"/><path id="Shape" d="m40 21c0 7.19-2.58 10.24-5.15 11.39-2.2542544.452538-4.5512534.6570883-6.85.61-2.2987466.0470883-4.5957456-.157462-6.85-.61-2.57-1.15-5.15-4.2-5.15-11.39-.0329137-1.8623685.1754859-3.7211587.62-5.53.2403816-.9622697.6104351-1.8874035 1.1-2.75 1.2128313.2010958 2.440637.2981159 3.67.29 4.0072686 2.6533106 9.2127314 2.6533106 13.22 0 1.229363.0081159 2.4571687-.0889042 3.67-.29.4895649.8625965.8596184 1.7877303 1.1 2.75.4445141 1.8088413.6529137 3.6676315.62 5.53z" fill="#fdd7ad"/><path id="Shape" d="m39.38 15.47c-1.561113.3790411-3.1636603.5604616-4.77.54-4.0072686 2.6533106-9.2127314 2.6533106-13.22 0-1.6063397.0204616-3.208887-.1609589-4.77-.54.2403816-.9622697.6104351-1.8874035 1.1-2.75 1.2128313.2010958 2.440637.2981159 3.67.29 4.0072686 2.6533106 9.2127314 2.6533106 13.22 0 1.229363.0081159 2.4571687-.0889042 3.67-.29.4895649.8625965.8596184 1.7877303 1.1 2.75z" fill="#f9c795"/><path id="Shape" d="m37.38 57.13c1.5580859 1.3318497 3.5745621 2.0028124 5.62 1.87h6c2 0 1-4-3-5-3.54-.88-5.51-.99-8.68-4.46l-.01-.01z" fill="#24ae5f"/><path id="Shape" d="m11.05 43.67c-1.32832369-.5226854-2.82381464-.4008306-4.05.33-2-5-7-3-7-3 .41299548-5.1139783 3.43824906-9.6518587 8-12 1.67895255 3.1449944 4.7522702 5.3052249 8.28 5.82z" fill="#24ae5f"/><path id="Shape" d="m39.72 34.82c3.5277298-.5147751 6.6010475-2.6750056 8.28-5.82 4.5617509 2.3481413 7.5870045 6.8860217 8 12 0 0-5-2-7 3-1.2261854-.7308306-2.7216763-.8526854-4.05-.33z" fill="#24ae5f"/><path id="Shape" d="m7 44c-2-5-7-3-7-3 .41299548-5.1139783 3.43824906-9.6518587 8-12-3 5-1 15-1 15z" fill="#4fba6f"/><path id="Shape" d="m56 41s-5-2-7 3c0 0 2-10-1-15 4.5617509 2.3481413 7.5870045 6.8860217 8 12z" fill="#4fba6f"/><path id="Shape" d="m43.85 46.36c-.7088231.5541165-1.6289182.7608514-2.5066513.5632161-.8777332-.1976353-1.6204265-.7787729-2.0233487-1.5832161l-3.32-5.34v5.31c-.004118.4133422.0811629.8226901.25 1.2 1.1756741 2.6748752 1.7720685 5.5682403 1.75 8.49-.0006544 1.1423333-.4896832 2.2298838-1.3437901 2.988453s-1.9917895 1.1157714-3.1262099.981547c-1.3282311-.1628465-2.4836947-.9871023-3.07-2.19-.304115-.5798666-.4620224-1.2252274-.46-1.88v-.08c-1.3225312.2400242-2.6774688.2400242-4 0v.18c.0027818 1.209917-.5422343 2.3560747-1.4824576 3.1175779-.9402233.7615031-2.1746024 1.0565085-3.3575424.8024221-1.8940078-.4351551-3.2169786-2.1474813-3.16-4.09-.001681-2.8616379.5943803-5.6920777 1.75-8.31.1678686-.381146.253073-.7935355.25-1.21v-5.31l-3.32 5.34c-.401036.806067-1.1428849 1.3894085-2.0207963 1.5890219s-1.7990583-.0056076-2.5092037-.5590219c-1.1302982-.9245241-1.4560452-2.5156733-.78-3.81l2.29-4.59c1.523813-3.0491065 4.6413284-4.9738334 8.05-4.97h12.58c3.4086716-.0038334 6.526187 1.9208935 8.05 4.97l2.29 4.59c.6770318 1.2909426.3508273 2.8801443-.78 3.8z" fill="#4fba6f"/><path id="Shape" d="m32.71 55.74c-.6452495.5388831-1.4214577.8976638-2.25 1.04-.304115-.5798666-.4620224-1.2252274-.46-1.88v-.07c.4757218-.0697935.9281044-.2514319 1.32-.53.4100818-.3554334 1.0274182-.3245666 1.4.07.3673328.3843749.3629047.9910283-.01 1.37z" fill="#24ae5f"/><path id="Shape" d="m26 54.83v.17c.0008894.6211846-.142909 1.2340398-.42 1.79-.8430615-.1403357-1.6335071-.5027671-2.29-1.05-.397645-.3838379-.4088379-1.017355-.025-1.415s1.017355-.4088379 1.415-.025c.3941541.2744085.8455233.4556401 1.32.53z" fill="#24ae5f"/><g fill="#ecf0f1"><path id="Shape" d="m26 17c-.5522847 0-1-.4477153-1-1v-1.17c0-.5522847.4477153-1 1-1s1 .4477153 1 1v1.17c0 .5522847-.4477153 1-1 1z"/><path id="Shape" d="m30 17c-.5522847 0-1-.4477153-1-1v-1.17c0-.5522847.4477153-1 1-1s1 .4477153 1 1v1.17c0 .5522847-.4477153 1-1 1z"/><path id="Shape" d="m34 16c-.5522847 0-1-.4477153-1-1v-1.6c0-.5522847.4477153-1 1-1s1 .4477153 1 1v1.6c0 .5522847-.4477153 1-1 1z"/><path id="Shape" d="m22 16c-.5522847 0-1-.4477153-1-1v-1.6c0-.5522847.4477153-1 1-1s1 .4477153 1 1v1.6c0 .5522847-.4477153 1-1 1z"/><circle id="Oval" cx="21" cy="23" r="3"/><path id="Shape" d="m38 23c0 1.6568542-1.3431458 3-3 3s-3-1.3431458-3-3c-.0019916-.2153476.0215051-.4301744.07-.64.3287112-1.4949115 1.7301238-2.5026506 3.2519111-2.3384105s2.675911 1.4477875 2.6780889 2.9784105z"/></g><path id="Shape" d="m28 29c-1.1206915-.0013592-2.1732025-.5383925-2.832-1.445-.3098317-.4572918-.1902918-1.0791682.267-1.389.4572918-.3098317 1.0791683-.1902918 1.389.267.2828092.3578042.7130439.5675061 1.1691134.5698409.4560696.0023348.8884288-.2029511 1.1748866-.5578409.306518-.4595009.9274991-.583518 1.387-.277s.583518.9274991.277 1.387c-.6587975.9066075-1.7113085 1.4436408-2.832 1.445z" fill="#802d40"/><path id="Shape" d="m32 46c0 3.59-1.791 5-4 5s-4-1.41-4-5 1.791-8 4-8 4 4.41 4 8z" fill="#f3d55b"/><path id="Shape" d="m43.85 46.36c-.7088231.5541165-1.6289182.7608514-2.5066513.5632161-.8777332-.1976353-1.6204265-.7787729-2.0233487-1.5832161l-.5-.81 5.29-3.02.52 1.05c.6770318 1.2909426.3508273 2.8801443-.78 3.8z" fill="#fdd7ad"/><path id="Shape" d="m17.18 44.53-.5.81c-.401036.806067-1.1428849 1.3894085-2.0207963 1.5890219s-1.7990583-.0056076-2.5092037-.5590219c-1.1302982-.9245241-1.4560452-2.5156733-.78-3.81l.52-1.05z" fill="#fdd7ad"/><path id="Shape" d="m43 9c0 3.76-6.36 4.02-8.39 4.01-4.0072686 2.6533106-9.2127314 2.6533106-13.22 0-2.03.01-8.39-.25-8.39-4.01 0-1.32 0-4.38 4.3-6.31h.01l4.3-1.22c2.1130119-.33592022 4.2505781-.49314339 6.39-.47 2.1394219-.02314339 4.2769881.13407978 6.39.47l4.31 1.22c4.3 1.93 4.3 4.99 4.3 6.31z" fill="#4fba6f"/><circle id="Oval" cx="20" cy="4" fill="#ecf0f1" r="3"/><circle id="Oval" cx="36" cy="4" fill="#ecf0f1" r="3"/><path id="Shape" d="m28 4c-.5522847 0-1-.44771525-1-1v-2c0-.55228475.4477153-1 1-1s1 .44771525 1 1v2c0 .55228475-.4477153 1-1 1z" fill="#24ae5f"/><circle id="Oval" cx="21.5" cy="23" fill="#3f5c6c" r="1.5"/><circle id="Oval" cx="34.5" cy="23" fill="#3f5c6c" r="1.5"/><circle id="Oval" cx="20" cy="4" fill="#3f5c6c" r="2"/><circle id="Oval" cx="36" cy="4" fill="#3f5c6c" r="2"/></g></g></svg>